<svg width="20" height="20" viewBox="0 0 20 20"><g fill="#fff"><path d="M10.063 1.75h4.025a5.075 5.075 0 011.887.375 2.263 2.263 0 011.132.75A2.95 2.95 0 0117.862 4a4.988 4.988 0 01.377 1.875v8a4.988 4.988 0 01-.377 1.875 2.248 2.248 0 01-.755 1.125 2.972 2.972 0 01-1.132.75 5.075 5.075 0 01-1.887.375h-8.05a5.075 5.075 0 01-1.887-.375 2.263 2.263 0 01-1.132-.75 2.95 2.95 0 01-.755-1.125 4.988 4.988 0 01-.377-1.875v-8A4.988 4.988 0 012.264 4a2.248 2.248 0 01.755-1.125 2.972 2.972 0 011.132-.75 5.075 5.075 0 011.887-.375h4.025m0-1.75H5.912a13.433 13.433 0 00-2.39.5 5.28 5.28 0 00-1.761 1.125A3.839 3.839 0 00.5 3.5 13.2 13.2 0 000 5.875v8.25A5.046 5.046 0 00.5 16.5a5.239 5.239 0 001.132 1.75A5.28 5.28 0 003.4 19.375 9.274 9.274 0 005.912 20h8.3a5.132 5.132 0 002.39-.5 4.912 4.912 0 002.898-2.875 8.027 8.027 0 00.5-2.375V6a5.046 5.046 0 00-.5-2.375 5.239 5.239 0 00-1.132-1.75A5.28 5.28 0 0016.6.75 5.363 5.363 0 0014.214 0h-4.151z" opacity=".8"/><path d="M10.061 4.799a5.2 5.2 0 100 10.4 5.2 5.2 0 100-10.4zm0 8.626a3.425 3.425 0 113.466-3.426 3.431 3.431 0 01-3.465 3.425z" opacity=".8"/><circle cx="1.231" cy="1.231" r="1.231" opacity=".8" transform="translate(14.258 3.383)"/></g></svg>