<svg width="21" height="18" viewBox="0 0 21 18"><path fill="#fff" d="M20.421.333a8.333 8.333 0 01-2.738 1.1A4.2 4.2 0 0014.538 0a4.431 4.431 0 00-4.307 4.544 4.756 4.756 0 00.111 1.035 12.028 12.028 0 01-8.88-4.75 4.729 4.729 0 00-.583 2.288A4.61 4.61 0 002.8 6.9a4.142 4.142 0 01-1.957-.568v.055A4.491 4.491 0 004.3 10.843 4 4 0 013.165 11a4.085 4.085 0 01-.811-.081 4.345 4.345 0 004.024 3.154A8.356 8.356 0 010 15.96 11.756 11.756 0 006.6 18c7.926 0 12.258-6.923 12.258-12.928 0-.2 0-.4-.011-.589A8.992 8.992 0 0021 2.131a8.259 8.259 0 01-2.474.715A4.519 4.519 0 0020.421.333" opacity=".8"/></svg>